<!-- keep it under 125kb -->
<svg xmlns="http://www.w3.org/2000/svg" xmlns:xlink="http://www.w3.org/1999/xlink">
  <defs>
    <!-- symbol id should be a value of IconId from /src/utils/icons.ts -->
  </defs>
  <symbol id="discord">
    <path d="M13.553 1.819a13.031 13.031 0 0 0-3.3-1.038 9.674 9.674 0 0 0-.423.878 12.12 12.12 0 0 0-3.659 0 9.38 9.38 0 0 0-.427-.878c-1.16.2-2.268.554-3.304 1.04C.351 4.978-.215 8.056.068 11.091a13.197 13.197 0 0 0 4.048 2.075c.326-.45.617-.926.867-1.428a8.527 8.527 0 0 1-1.365-.665c.115-.085.227-.174.335-.265 2.632 1.232 5.493 1.232 8.094 0 .11.091.222.18.335.265-.433.26-.891.485-1.368.666.25.501.54.98.867 1.428a13.171 13.171 0 0 0 4.051-2.076c.332-3.518-.568-6.568-2.379-9.272Zm-8.21 7.406c-.791 0-1.44-.738-1.44-1.637 0-.898.635-1.637 1.44-1.637.803 0 1.451.738 1.438 1.637 0 .899-.635 1.637-1.439 1.637Zm5.315 0c-.79 0-1.439-.738-1.439-1.637 0-.898.635-1.637 1.439-1.637s1.452.738 1.438 1.637c0 .899-.634 1.637-1.438 1.637Z" fill="currentColor"/>
  </symbol>
  <symbol id="telegram">
  <path d="M9.244 3.155c.368-.368.734-1.227-.8-.184-2.178 1.503-4.326 2.915-4.326 2.915a1.8 1.8 0 0 1-1.411.03C1.787 5.64.713 5.272.713 5.272s-.733-.46.522-.95c0 0 5.307-2.179 7.148-2.946C9.088 1.07 11.48.088 11.48.088s1.105-.43 1.013.613c-.031.43-.276 1.933-.522 3.56-.368 2.3-.767 4.815-.767 4.815s-.061.706-.583.828a2.525 2.525 0 0 1-1.533-.552c-.123-.092-2.3-1.472-3.1-2.147a.581.581 0 0 1 .03-.982 112.865 112.865 0 0 0 3.225-3.068Z" fill="currentColor"/>
  </symbol>
  <symbol id="twitter">
  <path fill-rule="evenodd" clip-rule="evenodd" d="M5.032 14.4c6.038 0 9.34-4.925 9.34-9.196 0-.14 0-.28-.01-.418A6.612 6.612 0 0 0 16 3.113a6.618 6.618 0 0 1-1.885.509 3.256 3.256 0 0 0 1.443-1.788 6.643 6.643 0 0 1-2.084.785 3.323 3.323 0 0 0-4.645-.14 3.204 3.204 0 0 0-.95 3.088A9.374 9.374 0 0 1 1.114 2.19 3.204 3.204 0 0 0 2.13 6.504 3.297 3.297 0 0 1 .64 6.1v.041c0 1.538 1.102 2.863 2.634 3.168-.484.13-.99.148-1.482.055a3.28 3.28 0 0 0 3.066 2.244A6.653 6.653 0 0 1 0 12.948a9.403 9.403 0 0 0 5.032 1.45" fill="currentColor"/>
  </symbol>
</svg>